<svg xmlns="http://www.w3.org/2000/svg" xmlns:svg="http://www.w3.org/2000/svg" id="svg2985" width="48" height="48" version="1.1"><metadata id="metadata2990"/><g id="airbus-vor-sym"><path style="fill:none;stroke:#af0063;stroke-width:1.57920909;stroke-miterlimit:4;stroke-dasharray:none" id="path3014" d="m 38.714285,22.642857 a 10.5,10.214286 0 1 1 -21,0 10.5,10.214286 0 1 1 21,0 z" transform="matrix(1.1857807,0,0,1.2189494,-9.1389546,-3.9914967)"/><path id="path3084" d="m 36.915889,23.738251 c 7.210196,0 9.210196,0 9.210196,0 l 0,0" style="fill:none;stroke:#af0063;stroke-width:2.23682857;stroke-linecap:butt;stroke-linejoin:miter;stroke-miterlimit:4;stroke-opacity:1;stroke-dasharray:none"/><path style="fill:none;stroke:#af0063;stroke-width:2.22900009;stroke-linecap:butt;stroke-linejoin:miter;stroke-miterlimit:4;stroke-opacity:1;stroke-dasharray:none" id="path3086" d="m 24.316735,1.1057656 c 0,7.8137242 0,7.8137242 0,7.8137242 l 0,2.0000002"/><path id="path3088" d="m 24.316735,35.872915 c 0,7.462294 0,9.462294 0,9.462294 l 0,0" style="fill:none;stroke:#af0063;stroke-width:2.22900009;stroke-linecap:butt;stroke-linejoin:miter;stroke-miterlimit:4;stroke-opacity:1;stroke-dasharray:none"/><path style="fill:none;stroke:#af0063;stroke-width:2.23682857;stroke-linecap:butt;stroke-linejoin:miter;stroke-miterlimit:4;stroke-opacity:1;stroke-dasharray:none" id="path4589" d="m 3.3195483,23.738251 c 7.2101957,0 7.2101957,0 7.2101957,0 l 2,0"/></g></svg>