<svg xmlns="http://www.w3.org/2000/svg" xmlns:svg="http://www.w3.org/2000/svg" id="svg3076" width="50" height="50" version="1.1"><metadata id="metadata3092"/><g id="g3078" transform="matrix(0.34013605,0,0,0.33783784,0.84746249,0.78240397)"><title id="title3080">Layer 1</title><g id="svg_7"><line id="svg_3" x1="112" x2="142" y1="71" y2="71" style="fill:none;stroke:#b00064;stroke-width:5"/><circle id="svg_2" cx="71" cy="71.5" r="39.115" d="m 110.11522,71.5 c 0,21.602737 -17.512483,39.11522 -39.11522,39.11522 -21.602737,0 -39.115215,-17.512483 -39.115215,-39.11522 0,-21.602737 17.512478,-39.115215 39.115215,-39.115215 21.602737,0 39.11522,17.512478 39.11522,39.115215 z" style="fill:none;stroke:#b00064;stroke-width:5"/><line id="svg_4" x1="0" x2="30" y1="71" y2="71" style="fill:none;stroke:#b00064;stroke-width:5"/><line id="svg_5" x1="55" x2="85" y1="128" y2="128" transform="matrix(0,1,-1,0,198,58)" style="fill:none;stroke:#b00064;stroke-width:5"/><line id="svg_6" x1="55" x2="85" y1="15" y2="15" transform="matrix(0,1,-1,0,85,-55)" style="fill:none;stroke:#b00064;stroke-width:5"/></g></g></svg>